<svg width="24" height="24" viewBox="0 0 24 24" fill="none" xmlns="http://www.w3.org/2000/svg">
<path fill-rule="evenodd" clip-rule="evenodd" d="M5.44899 10.3381C4.80427 7.36975 6.68794 4.44077 9.6563 3.79605C12.6247 3.15132 15.5536 5.035 16.1984 8.00336L16.7367 10.4819C16.9646 11.5313 17.7786 12.1385 18.4499 12.4046C18.949 12.6025 19.3377 13.0341 19.4589 13.5921C19.64 14.4262 19.1608 15.2276 18.3821 15.4602C16.8363 15.9219 14.7827 16.5083 12.6366 17.0448C10.2435 17.6431 8.06824 17.9764 6.48044 18.16C5.73839 18.2458 5.01118 17.7453 4.82644 16.8947C4.69788 16.3028 4.87938 15.7153 5.26878 15.3006C5.76121 14.7761 6.22223 13.8982 5.99972 12.8737L5.44899 10.3381ZM9.33793 2.33022C5.56002 3.15078 3.16261 6.87857 3.98316 10.6565L4.5339 13.1921C4.61916 13.5847 4.45021 13.981 4.17524 14.2739C3.46247 15.033 3.12289 16.1186 3.36062 17.2131C3.69578 18.7562 5.08417 19.8315 6.65277 19.6501C8.28832 19.4609 10.5298 19.1177 13.0004 18.5C15.1754 17.9563 17.252 17.3633 18.8114 16.8974C20.3608 16.4347 21.2679 14.8539 20.9247 13.2737C20.693 12.2069 19.9466 11.3844 19.0027 11.0102C18.6205 10.8587 18.2898 10.5652 18.2025 10.1635L17.6642 7.68498C16.8436 3.90708 13.1158 1.50967 9.33793 2.33022ZM13 19.5C12.2367 19.6658 11 19.849 11 19.849C11.2344 20.9284 12.2995 21.6134 13.3789 21.3789C14.4583 21.1445 15.1433 20.0794 14.9089 19C14.9089 19 13.7632 19.3342 13 19.5Z" fill="#242628"/>
<circle cx="17" cy="6" r="4" fill="#F23645"/>
</svg>
