<svg width="24" height="24" viewBox="0 0 24 24" fill="none" xmlns="http://www.w3.org/2000/svg">
<path d="M10.2803 5.46984C10.0057 5.19524 9.57095 5.17778 9.27637 5.41809L9.21973 5.46984L3.21973 11.4698L3.16797 11.5265C2.94366 11.8014 2.94366 12.1988 3.16797 12.4737L3.21973 12.5304L9.21973 18.5304C9.51262 18.8233 9.98738 18.8233 10.2803 18.5304C10.5732 18.2375 10.5732 17.7627 10.2803 17.4698L5.56055 12.7501H19.75C20.1642 12.7501 20.5 12.4143 20.5 12.0001C20.5 11.5859 20.1642 11.2501 19.75 11.2501H5.56055L10.2803 6.53039L10.332 6.47375C10.5723 6.17917 10.5549 5.74445 10.2803 5.46984Z" fill="#242628"/>
</svg>
