<svg width="24" height="24" viewBox="0 0 24 24" fill="none" xmlns="http://www.w3.org/2000/svg">
<path fill-rule="evenodd" clip-rule="evenodd" d="M10.4497 3.5C9.75937 3.5 9.19972 4.05964 9.19972 4.75V7.5503L9.51787 7.55019H9.5179L9.55 7.5502H14.7504L14.7826 7.55019H14.7826L15.0999 7.5503V4.75C15.0999 4.05964 14.5403 3.5 13.8499 3.5H10.4497ZM7.69972 4.75V7.58067C7.63776 7.58448 7.57738 7.58875 7.51853 7.59356C6.9719 7.63822 6.49175 7.73258 6.04754 7.95892C5.34193 8.31845 4.76825 8.89212 4.40873 9.59773C4.18239 10.0419 4.08803 10.5221 4.04336 11.0687C3.99999 11.5996 3.99999 12.2553 4 13.0681V13.1002V16.4506V16.4827C3.99999 17.2955 3.99999 17.9511 4.04336 18.4821C4.08803 19.0287 4.18239 19.5088 4.40873 19.9531C4.76825 20.6587 5.34193 21.2323 6.04754 21.5919C6.49175 21.8182 6.9719 21.9126 7.51853 21.9572C8.04944 22.0006 8.70505 22.0006 9.51788 22.0006H9.55H14.7505H14.7826C15.5954 22.0006 16.251 22.0006 16.7819 21.9572C17.3286 21.9126 17.8087 21.8182 18.2529 21.5919C18.9585 21.2323 19.5322 20.6587 19.8917 19.9531C20.1181 19.5088 20.2124 19.0287 20.2571 18.4821C20.3005 17.9511 20.3005 17.2955 20.3005 16.4827V16.4506V13.1002V13.0681C20.3005 12.2552 20.3005 11.5996 20.2571 11.0687C20.2124 10.5221 20.1181 10.0419 19.8917 9.59773C19.5322 8.89212 18.9585 8.31845 18.2529 7.95892C17.8087 7.73258 17.3286 7.63822 16.7819 7.59356C16.7228 7.58873 16.6622 7.58444 16.5999 7.58063V4.75C16.5999 3.23122 15.3687 2 13.8499 2H10.4497C8.93094 2 7.69972 3.23122 7.69972 4.75ZM7.64068 9.08858C7.1868 9.12566 6.92604 9.19479 6.72852 9.29543C6.30516 9.51115 5.96095 9.85535 5.74524 10.2787C5.6446 10.4762 5.57547 10.737 5.53838 11.1909C5.50058 11.6535 5.5 12.2477 5.5 13.1002V16.4506C5.5 17.303 5.50058 17.8973 5.53838 18.3599C5.57547 18.8138 5.6446 19.0746 5.74524 19.2721C5.96095 19.6954 6.30516 20.0396 6.72852 20.2554C6.92604 20.356 7.1868 20.4251 7.64068 20.4622C8.10331 20.5 8.69755 20.5006 9.55 20.5006H14.7505C15.6029 20.5006 16.1971 20.5 16.6598 20.4622C17.1136 20.4251 17.3744 20.356 17.5719 20.2554C17.9953 20.0396 18.3395 19.6954 18.5552 19.2721C18.6559 19.0746 18.725 18.8138 18.7621 18.3599C18.7999 17.8973 18.8005 17.303 18.8005 16.4506V13.1002C18.8005 12.2477 18.7999 11.6535 18.7621 11.1909C18.725 10.737 18.6559 10.4762 18.5552 10.2787C18.3395 9.85535 17.9953 9.51115 17.5719 9.29543C17.3744 9.19479 17.1136 9.12566 16.6598 9.08858C16.1971 9.05078 15.6029 9.0502 14.7504 9.0502H9.55C8.69755 9.0502 8.10331 9.05078 7.64068 9.08858ZM12.8994 13.8504C12.8994 13.4362 12.5637 13.1004 12.1494 13.1004C11.7352 13.1004 11.3994 13.4362 11.3994 13.8504V15.7012C11.3994 16.1154 11.7352 16.4512 12.1494 16.4512C12.5637 16.4512 12.8994 16.1154 12.8994 15.7012V13.8504Z" fill="#242628"/>
</svg>
