<svg width="24" height="24" viewBox="0 0 24 24" fill="none" xmlns="http://www.w3.org/2000/svg">
<path d="M14.9093 19.0006C15.1438 20.08 14.4583 21.1449 13.3788 21.3794C12.2995 21.6137 11.2344 20.9292 11 19.8499C11 19.8499 12.2373 19.6666 13.0006 19.5009C13.7638 19.3351 14.9093 19.0006 14.9093 19.0006ZM9.3379 2.33095C13.1158 1.5104 16.8442 3.90788 17.6648 7.68574L18.2031 10.1657C18.2904 10.567 18.6212 10.8604 19.003 11.0117C19.9468 11.3858 20.6933 12.2084 20.9251 13.275C21.2679 14.8549 20.3611 16.436 18.8121 16.8988C17.2527 17.3646 15.1761 17.958 13.0013 18.5017C10.5309 19.1193 8.28896 19.4624 6.65345 19.6516C5.08493 19.833 3.69626 18.7571 3.361 17.2141C3.13821 16.1881 3.42288 15.1704 4.0465 14.4216L4.17566 14.2751C4.45054 13.9823 4.61897 13.5851 4.53373 13.1926L3.98311 10.6578C3.16256 6.87995 5.56007 3.15156 9.3379 2.33095ZM16.1985 8.00456C15.5538 5.03627 12.625 3.15262 9.65672 3.79722C6.68837 4.44194 4.80466 7.37063 5.44938 10.339L5.99992 12.8747C6.22236 13.8991 5.76129 14.7777 5.26888 15.3021C4.92837 15.665 4.74696 16.1598 4.79287 16.6741L4.82622 16.8962C5.01105 17.7462 5.73871 18.2462 6.48058 18.1606C8.06837 17.977 10.2448 17.6448 12.6376 17.0466C14.783 16.5102 16.8364 15.9227 18.3822 15.461C19.1605 15.2283 19.64 14.4269 19.4589 13.5929C19.3378 13.0358 18.9498 12.605 18.4507 12.4071C17.7792 12.1409 16.9648 11.5328 16.7369 10.4835L16.1985 8.00456Z" fill="#242628"/>
</svg>
