<svg width="24" height="24" viewBox="0 0 24 24" fill="none" xmlns="http://www.w3.org/2000/svg">
<path fill-rule="evenodd" clip-rule="evenodd" d="M13.4697 19.5303C13.7626 19.8232 14.2374 19.8232 14.5303 19.5303L19.5303 14.5303C19.8232 14.2374 19.8232 13.7626 19.5303 13.4697L14.5303 8.46967C14.2374 8.17678 13.7626 8.17678 13.4697 8.46967C13.1768 8.76256 13.1768 9.23744 13.4697 9.53033L17.1893 13.25H17.1838H17.1665H17.1492H17.1319H17.1146H17.0974H17.0801H17.0628H17.0456H17.0283H17.0111H16.9938H16.9766H16.9594H16.9421H16.9249H16.9077H16.8905H16.8733H16.8561H16.8389H16.8217H16.8045H16.7874H16.7702H16.753H16.7359H16.7187H16.7016H16.6844H16.6673H16.6501H16.633H16.6159H16.5988H16.5817H16.5646H16.5475H16.5304H16.5133H16.4962H16.4791H16.462H16.445H16.4279H16.4108H16.3938H16.3767H16.3597H16.3426H16.3256H16.3086H16.2916H16.2745H16.2575H16.2405H16.2235H16.2065H16.1895H16.1725H16.1555H16.1386H16.1216H16.1046H16.0876H16.0707H16.0537H16.0368H16.0198H16.0029H15.9859H15.969H15.9521H15.9352H15.9182H15.9013H15.8844H15.8675H15.8506H15.8337H15.8168H15.7999H15.783H15.7662H15.7493H15.7324H15.7155H15.6987H15.6818H15.665H15.6481H15.6313H15.6144H15.5976H15.5808H15.5639H15.5471H15.5303H15.5135H15.4967H15.4799H15.4631H15.4463H15.4295H15.4127H15.3959H15.3791H15.3623H15.3456H15.3288H15.312H15.2953H15.2785H15.2617H15.245H15.2282H15.2115H15.1948H15.178H15.1613H15.1446H15.1278H15.1111H15.0944H15.0777H15.061H15.0443H15.0276H15.0109H14.9942H14.9775H14.9608H14.9441H14.9274H14.9108H14.8941H14.8774H14.8608H14.8441H14.8274H14.8108H14.7941H14.7775H14.7608H14.7442H14.7276H14.7109H14.6943H14.6777H14.661H14.6444H14.6278H14.6112H14.5946H14.578H14.5614H14.5448H14.5282H14.5116H14.495H14.4784H14.4618H14.4452H14.4286H14.4121H14.3955H14.3789H14.3623H14.3458H14.3292H14.3127H14.2961H14.2795H14.263H14.2464H14.2299H14.2134H14.1968H14.1803H14.1637H14.1472H14.1307H14.1142H14.0976H14.0811H14.0646H14.0481H14.0316H14.0151H13.9986H13.9821H13.9656H13.9491H13.9326H13.9161H13.8996H13.8831H13.8666H13.8501H13.8336H13.8172H13.8007H13.7842H13.7677H13.7513H13.7348H13.7183H13.7019H13.6854H13.6689H13.6525H13.636H13.6196H13.6031H13.5867H13.5702H13.5538H13.5374H13.5209H13.5045H13.4881H13.4716H13.4552H13.4388H13.4223H13.4059H13.3895H13.3731H13.3567H13.3402H13.3238H13.3074H13.291H13.2746H13.2582H13.2418H13.2254H13.209H13.1926H13.1762H13.1598H13.1434H13.127H13.1106H13.0942H13.0778H13.0615H13.0451H13.0287H13.0123H12.9959H12.9796H12.9632H12.9468H12.9304H12.9141H12.8977H12.8813H12.865H12.8486H12.8322H12.8159H12.7995H12.7831H12.7668H12.7504H12.7341H12.7177H12.7014H12.685H12.6687H12.6523H12.636H12.6196H12.6033H12.5869H12.5706H12.5542H12.5379H12.5215H12.5052H12.4889H12.4725H12.4562H12.4399H12.4235H12.4072H12.3909H12.3745H12.3582H12.3419H12.3255H12.3092H12.2929H12.2766H12.2602H12.2439H12.2276H12.2113H12.1949H12.1786H12.1623H12.146H12.1297H12.1133H12.097H12.0807H12.0644H12.0481H12.0317H12.0154H11.9991H11.9828H11.9665H11.9502H11.9339H11.9176H11.9012H11.8849H11.8686H11.8523H11.836H11.8197H11.8034H11.7871H11.7708H11.7544H11.7381H11.7218H11.7055H11.6892H11.6729H11.6566H11.6403H11.624H11.6077H11.5914H11.5751H11.5588H11.5424H11.5261H11.5098H11.4935H11.4772H11.4609H11.4446H11.4283H11.412H11.3957H11.3794H11.3631H11.3468H11.3305H11.3142H11.2978H11.2815H11.2652H11.2489H11.2326H11.2163H11.2H11.1837H11.1674H11.1511H11.1347H11.1184H11.1021H11.0858H11.0695H11.0532H11.0369H11.0206H11.0042H10.9879H10.9716H10.9553H10.939H10.9227H10.9064H10.89H10.8737H10.8574H10.8411H10.8248H10.8084H10.7921H10.7758H10.7595H10.7431H10.7268H10.7105H10.6942H10.6778H10.6615H10.6452H10.6288H10.6125H10.5962H10.5798H10.5635H10.5472H10.5308H10.5145H10.4982H10.4818H10.4655H10.4491H10.4328H10.4165H10.4001C9.26759 13.25 8.46331 13.2494 7.83391 13.198C7.21326 13.1473 6.829 13.0509 6.52453 12.8958C5.913 12.5842 5.41582 12.087 5.10423 11.4755C4.94909 11.171 4.85271 10.7867 4.80201 10.1661C4.75058 9.53673 4.75 8.73248 4.75 7.6V6C4.75 5.58579 4.41421 5.25 4 5.25C3.58579 5.25 3.25 5.58579 3.25 6V7.6L3.25 7.633C3.24999 8.72515 3.24999 9.59064 3.30699 10.2883C3.36527 11.0017 3.48688 11.6053 3.76772 12.1565C4.22312 13.0502 4.94978 13.7769 5.84355 14.2323C6.39472 14.5131 6.99836 14.6347 7.71176 14.693C8.4094 14.75 9.27493 14.75 10.3671 14.75H10.4001H10.4165H10.4328H10.4491H10.4655H10.4818H10.4982H10.5145H10.5308H10.5472H10.5635H10.5798H10.5962H10.6125H10.6288H10.6452H10.6615H10.6778H10.6942H10.7105H10.7268H10.7431H10.7595H10.7758H10.7921H10.8084H10.8248H10.8411H10.8574H10.8737H10.89H10.9064H10.9227H10.939H10.9553H10.9716H10.9879H11.0042H11.0206H11.0369H11.0532H11.0695H11.0858H11.1021H11.1184H11.1347H11.1511H11.1674H11.1837H11.2H11.2163H11.2326H11.2489H11.2652H11.2815H11.2978H11.3142H11.3305H11.3468H11.3631H11.3794H11.3957H11.412H11.4283H11.4446H11.4609H11.4772H11.4935H11.5098H11.5261H11.5424H11.5588H11.5751H11.5914H11.6077H11.624H11.6403H11.6566H11.6729H11.6892H11.7055H11.7218H11.7381H11.7544H11.7708H11.7871H11.8034H11.8197H11.836H11.8523H11.8686H11.8849H11.9012H11.9176H11.9339H11.9502H11.9665H11.9828H11.9991H12.0154H12.0317H12.0481H12.0644H12.0807H12.097H12.1133H12.1297H12.146H12.1623H12.1786H12.1949H12.2113H12.2276H12.2439H12.2602H12.2766H12.2929H12.3092H12.3255H12.3419H12.3582H12.3745H12.3909H12.4072H12.4235H12.4399H12.4562H12.4725H12.4889H12.5052H12.5215H12.5379H12.5542H12.5706H12.5869H12.6033H12.6196H12.636H12.6523H12.6687H12.685H12.7014H12.7177H12.7341H12.7504H12.7668H12.7831H12.7995H12.8159H12.8322H12.8486H12.865H12.8813H12.8977H12.9141H12.9304H12.9468H12.9632H12.9796H12.9959H13.0123H13.0287H13.0451H13.0615H13.0778H13.0942H13.1106H13.127H13.1434H13.1598H13.1762H13.1926H13.209H13.2254H13.2418H13.2582H13.2746H13.291H13.3074H13.3238H13.3402H13.3567H13.3731H13.3895H13.4059H13.4223H13.4388H13.4552H13.4716H13.4881H13.5045H13.5209H13.5374H13.5538H13.5702H13.5867H13.6031H13.6196H13.636H13.6525H13.6689H13.6854H13.7019H13.7183H13.7348H13.7513H13.7677H13.7842H13.8007H13.8172H13.8336H13.8501H13.8666H13.8831H13.8996H13.9161H13.9326H13.9491H13.9656H13.9821H13.9986H14.0151H14.0316H14.0481H14.0646H14.0811H14.0976H14.1142H14.1307H14.1472H14.1637H14.1803H14.1968H14.2134H14.2299H14.2464H14.263H14.2795H14.2961H14.3127H14.3292H14.3458H14.3623H14.3789H14.3955H14.4121H14.4286H14.4452H14.4618H14.4784H14.495H14.5116H14.5282H14.5448H14.5614H14.578H14.5946H14.6112H14.6278H14.6444H14.661H14.6777H14.6943H14.7109H14.7276H14.7442H14.7608H14.7775H14.7941H14.8108H14.8274H14.8441H14.8608H14.8774H14.8941H14.9108H14.9274H14.9441H14.9608H14.9775H14.9942H15.0109H15.0276H15.0443H15.061H15.0777H15.0944H15.1111H15.1278H15.1446H15.1613H15.178H15.1948H15.2115H15.2282H15.245H15.2617H15.2785H15.2953H15.312H15.3288H15.3456H15.3623H15.3791H15.3959H15.4127H15.4295H15.4463H15.4631H15.4799H15.4967H15.5135H15.5303H15.5471H15.5639H15.5808H15.5976H15.6144H15.6313H15.6481H15.665H15.6818H15.6987H15.7155H15.7324H15.7493H15.7662H15.783H15.7999H15.8168H15.8337H15.8506H15.8675H15.8844H15.9013H15.9182H15.9352H15.9521H15.969H15.9859H16.0029H16.0198H16.0368H16.0537H16.0707H16.0876H16.1046H16.1216H16.1386H16.1555H16.1725H16.1895H16.2065H16.2235H16.2405H16.2575H16.2745H16.2916H16.3086H16.3256H16.3426H16.3597H16.3767H16.3938H16.4108H16.4279H16.445H16.462H16.4791H16.4962H16.5133H16.5304H16.5475H16.5646H16.5817H16.5988H16.6159H16.633H16.6501H16.6673H16.6844H16.7016H16.7187H16.7359H16.753H16.7702H16.7874H16.8045H16.8217H16.8389H16.8561H16.8733H16.8905H16.9077H16.9249H16.9421H16.9594H16.9766H16.9938H17.0111H17.0283H17.0456H17.0628H17.0801H17.0974H17.1146H17.1319H17.1492H17.1665H17.1838H17.1893L13.4697 18.4697C13.1768 18.7626 13.1768 19.2374 13.4697 19.5303Z" fill="#242628"/>
</svg>
