<svg width="24" height="24" viewBox="0 0 24 24" fill="none" xmlns="http://www.w3.org/2000/svg">
<path fill-rule="evenodd" clip-rule="evenodd" d="M8.45 1.4C8.11863 1.15147 7.64853 1.21863 7.4 1.55C7.15147 1.88137 7.21863 2.35147 7.55 2.6L9.75 4.25L9.4 4.25L9.367 4.25L9.36699 4.25C8.27485 4.24999 7.40935 4.24999 6.71173 4.30699C5.99834 4.36527 5.39472 4.48688 4.84355 4.76772C3.94978 5.22312 3.22312 5.94977 2.76772 6.84355C2.48688 7.39472 2.36527 7.99834 2.30699 8.71173C2.24999 9.40934 2.24999 10.2748 2.25 11.3669L2.25 11.367L2.25 11.4L2.25 13.6L2.25 13.633C2.24999 14.7251 2.24999 15.5906 2.30699 16.2883C2.36527 17.0017 2.48688 17.6053 2.76772 18.1565C3.22312 19.0502 3.94978 19.7769 4.84354 20.2323C5.39472 20.5131 5.99834 20.6347 6.71173 20.693C6.7445 20.6957 6.77763 20.6982 6.81114 20.7007L6.32918 21.6646C6.14394 22.0351 6.29411 22.4856 6.66459 22.6708C7.03507 22.8561 7.48558 22.7059 7.67082 22.3354L8.46424 20.7486C8.74593 20.75 9.04548 20.75 9.36437 20.75L9.36691 20.75L9.36698 20.75L9.4 20.75L14.6 20.75L14.633 20.75C14.9529 20.75 15.2533 20.75 15.5358 20.7486L16.3292 22.3354C16.5144 22.7059 16.9649 22.8561 17.3354 22.6708C17.7059 22.4856 17.8561 22.0351 17.6708 21.6646L17.1889 20.7007C17.2224 20.6982 17.2555 20.6957 17.2883 20.693C18.0017 20.6347 18.6053 20.5131 19.1565 20.2323C20.0502 19.7769 20.7769 19.0502 21.2323 18.1565C21.5131 17.6053 21.6347 17.0017 21.693 16.2883C21.75 15.5906 21.75 14.7252 21.75 13.633L21.75 13.6L21.75 11.4L21.75 11.367C21.75 10.2748 21.75 9.40935 21.693 8.71173C21.6347 7.99834 21.5131 7.39472 21.2323 6.84354C20.7769 5.94978 20.0502 5.22312 19.1565 4.76772C18.6053 4.48688 18.0017 4.36527 17.2883 4.30699C16.5906 4.24999 15.7251 4.24999 14.633 4.25L14.6 4.25L14.25 4.25L16.45 2.6C16.7814 2.35147 16.8485 1.88137 16.6 1.55C16.3515 1.21863 15.8814 1.15147 15.55 1.4L12 4.0625L8.45 1.4ZM11.9981 5.75L9.4 5.75C8.26752 5.75 7.46327 5.75058 6.83388 5.80201C6.21325 5.85271 5.829 5.94909 5.52453 6.10423C4.913 6.41582 4.41582 6.913 4.10423 7.52453C3.94909 7.829 3.85271 8.21325 3.80201 8.83388C3.75058 9.46326 3.75 10.2675 3.75 11.4L3.75 13.6C3.75 14.7325 3.75058 15.5367 3.80201 16.1661C3.85271 16.7867 3.94909 17.171 4.10423 17.4755C4.41582 18.087 4.913 18.5842 5.52453 18.8958C5.829 19.0509 6.21325 19.1473 6.83388 19.198C7.46327 19.2494 8.26752 19.25 9.4 19.25L14.6 19.25C15.7325 19.25 16.5367 19.2494 17.1661 19.198C17.7867 19.1473 18.171 19.0509 18.4755 18.8958C19.087 18.5842 19.5842 18.087 19.8958 17.4755C20.0509 17.171 20.1473 16.7867 20.198 16.1661C20.2494 15.5367 20.25 14.7325 20.25 13.6L20.25 11.4C20.25 10.2675 20.2494 9.46326 20.198 8.83388C20.1473 8.21325 20.0509 7.829 19.8958 7.52453C19.5842 6.913 19.087 6.41582 18.4755 6.10423C18.171 5.94909 17.7867 5.85271 17.1661 5.80201C16.5367 5.75058 15.7325 5.75 14.6 5.75L12.0019 5.75L11.9981 5.75ZM11.1696 8.25L11.2 8.25L12.8 8.25L12.8304 8.25L12.8305 8.25C13.3646 8.24999 13.8104 8.24998 14.1747 8.27974C14.5546 8.31078 14.9112 8.37789 15.2485 8.54973C15.7659 8.81338 16.1866 9.23408 16.4503 9.75153C16.6221 10.0888 16.6892 10.4454 16.7203 10.8253C16.75 11.1896 16.75 11.6354 16.75 12.1695L16.75 12.1695L16.75 12.2L16.75 12.8L16.75 12.8305L16.75 12.8305C16.75 13.3646 16.75 13.8105 16.7203 14.1747C16.6892 14.5546 16.6221 14.9112 16.4503 15.2485C16.1866 15.7659 15.7659 16.1866 15.2485 16.4503C14.9112 16.6221 14.5546 16.6892 14.1747 16.7203C13.8104 16.75 13.3646 16.75 12.8304 16.75L12.8 16.75L11.2 16.75L11.1696 16.75C10.6354 16.75 10.1896 16.75 9.82533 16.7203C9.44545 16.6892 9.08879 16.6221 8.75153 16.4503C8.23408 16.1866 7.81338 15.7659 7.54973 15.2485C7.37789 14.9112 7.31078 14.5546 7.27974 14.1747C7.24998 13.8104 7.24999 13.3646 7.25 12.8304L7.25 12.8L7.25 12.2L7.25 12.1696L7.25 12.1695C7.24999 11.6354 7.24998 11.1896 7.27974 10.8253C7.31078 10.4454 7.37789 10.0888 7.54973 9.75153C7.81338 9.23408 8.23408 8.81338 8.75153 8.54973C9.08879 8.37789 9.44545 8.31078 9.82533 8.27974C10.1896 8.24998 10.6354 8.24999 11.1696 8.25ZM9.94748 9.77476C9.66035 9.79822 9.52307 9.8401 9.43251 9.88624C9.19731 10.0061 9.00608 10.1973 8.88624 10.4325C8.8401 10.5231 8.79822 10.6604 8.77476 10.9475C8.75058 11.2434 8.75 11.6276 8.75 12.2L8.75 12.8C8.75 13.3724 8.75058 13.7566 8.77476 14.0525C8.79822 14.3396 8.8401 14.4769 8.88624 14.5675C9.00608 14.8027 9.19731 14.9939 9.43251 15.1138C9.52307 15.1599 9.66035 15.2018 9.94748 15.2252C10.2434 15.2494 10.6276 15.25 11.2 15.25L12.8 15.25C13.3724 15.25 13.7566 15.2494 14.0525 15.2252C14.3396 15.2018 14.4769 15.1599 14.5675 15.1138C14.8027 14.9939 14.9939 14.8027 15.1138 14.5675C15.1599 14.4769 15.2018 14.3396 15.2252 14.0525C15.2494 13.7566 15.25 13.3724 15.25 12.8L15.25 12.2C15.25 11.6276 15.2494 11.2434 15.2252 10.9475C15.2018 10.6604 15.1599 10.5231 15.1138 10.4325C14.9939 10.1973 14.8027 10.0061 14.5675 9.88624C14.4769 9.8401 14.3396 9.79822 14.0525 9.77476C13.7566 9.75058 13.3724 9.75 12.8 9.75L11.2 9.75C10.6276 9.75 10.2434 9.75058 9.94748 9.77476Z" fill="#242628"/>
</svg>
