<svg xmlns="http://www.w3.org/2000/svg" xmlns:xlink="http://www.w3.org/1999/xlink" width="525" zoomAndPan="magnify" viewBox="0 0 393.75 68.999997" height="92" preserveAspectRatio="xMidYMid meet" version="1.0"><defs><clipPath id="1cfa8a0fe9"><path d="M 0 0.0234375 L 393.5 0.0234375 L 393.5 68.976562 L 0 68.976562 Z M 0 0.0234375 " clip-rule="nonzero"/></clipPath></defs><g clip-path="url(#1cfa8a0fe9)"><path fill="#000000" d="M 123.199219 1.09375 C 111.261719 3.808594 104.183594 11.257812 104.183594 21.105469 C 104.183594 23.472656 104.542969 26.359375 104.980469 27.519531 C 106.230469 30.832031 110.164062 34.496094 114.933594 36.78125 C 119.074219 38.769531 122.765625 39.574219 140.089844 42.285156 C 148.496094 43.597656 151.003906 45.375 150.875 49.914062 C 150.675781 56.992188 140.035156 60.960938 128.117188 58.402344 C 123.222656 57.355469 118.835938 53.59375 117.90625 49.652344 L 117.246094 46.867188 L 109.589844 46.652344 L 101.933594 46.441406 L 101.941406 49.277344 C 101.960938 55.929688 107.335938 62.875 115.390625 66.652344 C 119.222656 68.453125 120.484375 68.625 131.542969 68.863281 C 147.566406 69.210938 154.152344 67.628906 161.148438 61.742188 C 169.125 55.03125 168.910156 40.382812 160.75 34.15625 C 156.882812 31.207031 152.996094 30.109375 139.410156 28.125 C 124.617188 25.964844 122.492188 25.300781 120.976562 22.371094 C 117.589844 15.820312 125.441406 9.714844 135.859375 10.796875 C 143.367188 11.574219 147.46875 14.761719 148.527344 20.632812 C 148.773438 21.996094 149.476562 22.152344 156.109375 22.347656 C 164.714844 22.601562 164.882812 22.445312 163.023438 15.988281 C 161.222656 9.753906 155.734375 4.496094 148.660156 2.234375 C 142.132812 0.144531 129.796875 -0.40625 123.199219 1.09375 M 0 34.5 L 0 68.230469 L 13.492188 68.230469 L 13.492188 0.769531 L 0 0.769531 Z M 27.730469 34.5 L 27.730469 68.230469 L 42.703125 68.230469 L 42.902344 41.058594 L 43.097656 13.886719 L 80.199219 13.488281 L 80.199219 68.230469 L 95.191406 68.230469 L 95.191406 0.769531 L 27.730469 0.769531 Z M 173.890625 34.5 L 173.890625 68.230469 L 188.878906 68.230469 L 188.878906 0.769531 L 173.890625 0.769531 Z M 203.121094 34.5 L 203.121094 68.230469 L 223.199219 68.230469 C 248.980469 68.230469 253.941406 67.085938 262.6875 59.113281 C 275.882812 47.085938 276.289062 22.714844 263.488281 10.613281 C 254.613281 2.21875 248.699219 0.800781 222.421875 0.785156 L 203.121094 0.769531 Z M 306.578125 1.574219 C 295.5 3.550781 285.410156 11.484375 281.769531 21.078125 C 280.167969 25.304688 279.949219 27.097656 279.949219 36.015625 C 279.949219 45.929688 280 46.257812 282.375 51.082031 C 288.484375 63.492188 302.269531 69.976562 319.894531 68.734375 C 333.730469 67.761719 343.660156 62.230469 347.722656 53.238281 C 350.359375 47.394531 350.230469 47.242188 342.625 47.242188 C 336.003906 47.242188 335.964844 47.253906 335.078125 49.390625 C 333.800781 52.476562 330 55.894531 325.667969 57.855469 C 320.410156 60.238281 309.964844 60.320312 304.988281 58.019531 C 298.601562 55.0625 293.75 48.554688 292.625 41.433594 L 292.121094 38.246094 L 350.960938 38.246094 L 350.609375 31.6875 C 349.816406 16.929688 342.199219 6.445312 329.472656 2.601562 C 324.734375 1.171875 312.039062 0.601562 306.578125 1.574219 M 356.773438 34.5 L 356.773438 68.230469 L 371.765625 68.230469 L 371.765625 11.265625 L 393.5 11.265625 L 393.5 0.769531 L 356.773438 0.769531 Z M 307.210938 11.144531 C 299.691406 13.636719 295.460938 18.257812 293.210938 26.441406 L 292.433594 29.253906 L 337.285156 29.253906 L 337.285156 27.511719 C 337.285156 21.683594 332.191406 14.511719 326.132812 11.820312 C 321.34375 9.691406 312.546875 9.375 307.210938 11.144531 M 219.039062 34.6875 L 219.234375 56.609375 L 228.980469 56.582031 C 243.78125 56.535156 249.578125 53.875 253.851562 45.164062 C 255.714844 41.371094 255.960938 40.039062 255.960938 33.75 C 255.960938 25.757812 255.113281 23.410156 250.476562 18.566406 C 246.082031 13.980469 241.640625 12.765625 229.316406 12.765625 L 218.839844 12.765625 Z M 219.039062 34.6875 " fill-opacity="1" fill-rule="evenodd"/></g></svg>