<svg xmlns="http://www.w3.org/2000/svg" xmlns:xlink="http://www.w3.org/1999/xlink" width="152" zoomAndPan="magnify" viewBox="0 0 114 110.999996" height="148" preserveAspectRatio="xMidYMid meet" version="1.0"><path fill="#000000" d="M 58.207031 1.363281 C 58 1.703125 57.589844 13.683594 57.296875 27.988281 C 57.003906 42.296875 56.535156 54 56.253906 54 C 55.972656 54 43.804688 48.421875 29.21875 41.597656 C 14.628906 34.777344 2.171875 29.296875 1.535156 29.421875 C 0.519531 29.617188 0.351562 32.996094 0.179688 56.808594 L -0.0195312 83.972656 L 2.429688 85.003906 C 3.773438 85.570312 16.808594 91.683594 31.390625 98.585938 C 45.976562 105.492188 58.183594 110.855469 58.515625 110.507812 C 58.851562 110.160156 59.40625 97.953125 59.75 83.378906 L 60.375 56.886719 L 87 42.769531 C 109.707031 30.730469 113.625 28.410156 113.625 26.996094 C 113.625 25.550781 110.253906 23.761719 87.375 13.070312 C 72.9375 6.320312 60.554688 0.789062 59.855469 0.773438 C 59.160156 0.761719 58.417969 1.027344 58.207031 1.363281 " fill-opacity="1" fill-rule="evenodd"/></svg>